<svg width="400" height="200" viewBox="0 0 400 200" fill="none" xmlns="http://www.w3.org/2000/svg">
  <rect width="400" height="200" fill="#1e293b"/>
  <rect x="50" y="50" width="300" height="100" rx="8" fill="#334155" stroke="#64748b" stroke-width="2"/>
  <path d="M70 120 L90 100 L110 110 L130 90 L150 105 L170 95 L190 115 L210 85 L230 100 L250 95 L270 110 L290 90 L310 105 L330 95" stroke="#10b981" stroke-width="3" fill="none"/>
  <circle cx="90" cy="100" r="3" fill="#10b981"/>
  <circle cx="110" cy="110" r="3" fill="#10b981"/>
  <circle cx="130" cy="90" r="3" fill="#10b981"/>
  <circle cx="150" cy="105" r="3" fill="#10b981"/>
  <circle cx="170" cy="95" r="3" fill="#10b981"/>
  <circle cx="190" cy="115" r="3" fill="#10b981"/>
  <circle cx="210" cy="85" r="3" fill="#10b981"/>
  <circle cx="230" cy="100" r="3" fill="#10b981"/>
  <circle cx="250" cy="95" r="3" fill="#10b981"/>
  <circle cx="270" cy="110" r="3" fill="#10b981"/>
  <circle cx="290" cy="90" r="3" fill="#10b981"/>
  <circle cx="310" cy="105" r="3" fill="#10b981"/>
  <circle cx="330" cy="95" r="3" fill="#10b981"/>
  <rect x="60" y="60" width="80" height="20" rx="4" fill="#3b82f6" opacity="0.8"/>
  <text x="200" y="190" text-anchor="middle" fill="#f1f5f9" font-family="Arial, sans-serif" font-size="14" font-weight="bold">Observability & Monitoring</text>
</svg>
